<svg width="41" height="41" viewBox="0 0 41 41" fill="none" xmlns="http://www.w3.org/2000/svg">
<path fill-rule="evenodd" clip-rule="evenodd" d="M27.4404 18.6922C27.9203 19.1727 28.1899 19.8241 28.1899 20.5033C28.1899 21.1825 27.9203 21.8339 27.4404 22.3144L17.7765 31.9818C17.2957 32.4623 16.6437 32.7322 15.9639 32.7321C15.2841 32.7319 14.6322 32.4617 14.1517 31.9809C13.6711 31.5001 13.4012 30.8481 13.4014 30.1683C13.4015 29.4885 13.6717 28.8367 14.1525 28.3561L22.0053 20.5033L14.1525 12.6506C13.6854 12.1674 13.4268 11.5201 13.4323 10.8481C13.4378 10.1761 13.7071 9.5332 14.182 9.05779C14.657 8.58238 15.2997 8.31254 15.9717 8.30638C16.6437 8.30023 17.2912 8.55825 17.7748 9.02489L27.4421 18.6905L27.4404 18.6922Z" fill="black"/>
</svg>
