<svg width="41" height="41" viewBox="0 0 41 41" fill="none" xmlns="http://www.w3.org/2000/svg">
<path fill-rule="evenodd" clip-rule="evenodd" d="M13.5665 22.3144C13.0865 21.8339 12.8169 21.1825 12.8169 20.5033C12.8169 19.8241 13.0865 19.1727 13.5665 18.6922L23.2304 9.02486C23.7112 8.5443 24.3632 8.27441 25.0429 8.27457C25.7227 8.27473 26.3746 8.54492 26.8552 9.02572C27.3357 9.50651 27.6056 10.1585 27.6055 10.8383C27.6053 11.5181 27.3351 12.17 26.8543 12.6505L19.0016 20.5033L26.8543 28.3561C27.3214 28.8392 27.58 29.4865 27.5745 30.1585C27.569 30.8305 27.2998 31.4734 26.8248 31.9488C26.3498 32.4242 25.7072 32.6941 25.0352 32.7002C24.3632 32.7064 23.7157 32.4484 23.2321 31.9817L13.5648 22.3161L13.5665 22.3144Z" fill="black"/>
</svg>
