<svg width="23" height="23" viewBox="0 0 23 23" fill="none" xmlns="http://www.w3.org/2000/svg">
<path d="M7.65355 13.4956C6.5041 13.4956 5.56685 12.4671 5.56685 11.2088C5.56685 9.95063 6.48089 8.92099 7.65466 8.92099C8.81517 8.92099 9.76568 9.94954 9.74247 11.2088C9.74247 12.4671 8.81517 13.4956 7.65355 13.4956ZM15.3615 13.4945C14.2121 13.4945 13.2726 12.466 13.2726 11.2078C13.2726 9.94954 14.1889 8.9199 15.3615 8.9199C16.5221 8.9199 17.4726 9.94846 17.4505 11.2078C17.4505 12.466 16.5342 13.4945 15.3615 13.4945ZM9.42747 3.12841L9.08706 2.51562L8.38633 2.631C6.79843 2.89235 5.25296 3.36086 3.79072 4.02418L3.53872 4.13846L3.38178 4.36703C0.493766 8.56072 -0.298696 12.6913 0.0936667 16.7478L0.136771 17.1908L0.501503 17.452C2.20038 18.6798 4.09798 19.6156 6.11395 20.2199L6.98709 20.4833L8.21723 17.5271C10.3283 18.0409 12.6714 18.0409 14.7813 17.5271L16.0048 20.4844L16.8779 20.221C18.8956 19.6183 20.7943 18.6815 22.4926 17.4509L22.854 17.1919L22.8982 16.7544C23.3801 12.0524 22.1279 7.95664 19.6289 4.36376L19.472 4.13737L19.22 4.02418C17.7582 3.36362 16.2146 2.89521 14.6288 2.631L13.9457 2.51889L13.5987 3.10881C13.5014 3.27208 13.403 3.45711 13.308 3.64541C12.109 3.52438 10.9006 3.52438 9.70158 3.64541C9.60763 3.46037 9.51368 3.28187 9.42747 3.12841ZM5.65858 16.504C5.87632 16.6281 6.10621 16.75 6.33278 16.861L5.83653 18.0539C4.4942 17.5723 3.22073 16.9219 2.04774 16.1187C1.79906 12.7033 2.50421 9.25622 4.8816 5.70252C5.88502 5.26773 6.93083 4.93477 8.00281 4.70879C8.06913 4.84485 8.13102 4.97872 8.18186 5.09627L8.48359 5.79613L9.24842 5.6862C10.7472 5.46984 12.2701 5.46984 13.7689 5.6862L14.5315 5.79504L14.8321 5.09627C14.8841 4.97437 14.9449 4.84158 15.009 4.70879C16.0888 4.93736 17.1344 5.27477 18.1346 5.7047C20.2069 8.77405 21.2525 12.1982 20.9486 16.1176C19.775 16.9213 18.5007 17.5721 17.1576 18.0539L16.6657 16.8621C16.8934 16.7511 17.1233 16.6292 17.3433 16.504C17.8848 16.1971 18.4673 15.814 18.8386 15.4482L17.4239 14.0551C17.2438 14.2336 16.8459 14.5122 16.3441 14.7974C15.8534 15.076 15.366 15.3013 15.0543 15.4025C12.8405 16.1242 10.1603 16.1242 7.94534 15.4025C7.63477 15.3013 7.14735 15.076 6.65662 14.7974C6.15484 14.5133 5.75695 14.2336 5.57569 14.0551L4.16097 15.4482C4.53344 15.814 5.11701 16.1971 5.65858 16.504Z" fill="black"/>
</svg>
