<svg width="50" height="68" viewBox="0 0 50 68" fill="none" xmlns="http://www.w3.org/2000/svg">
<path fill-rule="evenodd" clip-rule="evenodd" d="M42.114 3.95974L45.9426 3.95974V7.91948H49.7711L49.7711 35.6377H45.9426V39.5974H42.114V43.5572H22.9713L22.9713 59.3961L19.1427 59.3961V63.3559H15.3142V67.3156H3.82855L3.82855 63.3559H0L0 51.4767H3.82855L3.82855 55.4364H7.65709L7.65709 51.4767H3.82855L3.82855 47.5169H7.65709L7.65709 7.91948L11.4856 7.91948L11.4856 3.95974L15.3142 3.95974V0L42.114 0V3.95974ZM26.7998 35.6377H30.6284L30.6284 31.6779H26.7998L26.7998 35.6377ZM26.7998 27.7182L34.4569 27.7182L34.4569 15.839H26.7998V27.7182ZM26.7998 11.8792H30.6284L30.6284 7.91948L26.7998 7.91948L26.7998 11.8792Z" fill="white"/>
</svg>
